HIERARCHY
ROOT Hips
{
	OFFSET 0.000000 0.000000 0.000000
	CHANNELS 6 Xposition Yposition Zposition Zrotation Xrotation Yrotation
	JOINT RightUpLeg
	{
		OFFSET -9.711200 0.000000 0.000000
		CHANNELS 3 Zrotation Xrotation Yrotation
		JOINT RightLeg
		{
			OFFSET 0.000000 -42.071800 0.000000
			CHANNELS 3 Zrotation Xrotation Yrotation
			JOINT RightFoot
			{
				OFFSET 0.000000 -40.121000 0.000000
				CHANNELS 3 Zrotation Xrotation Yrotation
				JOINT RightToe
				{
					OFFSET 0.000000 -9.631400 3.100600
					CHANNELS 3 Zrotation Xrotation Yrotation
					JOINT RightToeEnd
					{
						OFFSET 0.000000 -4.048200 4.118000
						CHANNELS 3 Zrotation Xrotation Yrotation
						End Site
						{
						    OFFSET 0.000000 -3.505200 3.565600
						}
					}
				}
			}
		}
	}
	JOINT LeftUpLeg
	{
		OFFSET 9.711200 0.000000 0.000000
		CHANNELS 3 Zrotation Xrotation Yrotation
		JOINT LeftLeg
		{
			OFFSET 0.000000 -42.071800 0.000000
			CHANNELS 3 Zrotation Xrotation Yrotation
			JOINT LeftFoot
			{
				OFFSET 0.000000 -40.121000 0.000000
				CHANNELS 3 Zrotation Xrotation Yrotation
				JOINT LeftToe
				{
					OFFSET 0.000000 -9.631400 3.100600
					CHANNELS 3 Zrotation Xrotation Yrotation
					JOINT LeftToeEnd
					{
						OFFSET 0.000000 -4.048200 4.118000
						CHANNELS 3 Zrotation Xrotation Yrotation
						End Site
						{
						    OFFSET 0.000000 -3.505200 3.565600
						}
					}
				}
			}
		}
	}
	JOINT Spine
	{
		OFFSET 0.000000 14.595200 0.000000
		CHANNELS 3 Zrotation Xrotation Yrotation
		JOINT Spine1
		{
			OFFSET 0.000000 9.770300 0.000000
			CHANNELS 3 Zrotation Xrotation Yrotation
			JOINT Spine2
			{
				OFFSET 0.000000 14.330100 0.000000
				CHANNELS 3 Zrotation Xrotation Yrotation
				JOINT LeftShoulder
				{
					OFFSET 2.000000 14.330100 0.000000
					CHANNELS 3 Zrotation Xrotation Yrotation
					JOINT LeftArm
					{
						OFFSET 14.369100 0.000000 0.000000
						CHANNELS 3 Zrotation Xrotation Yrotation
						JOINT LeftForeArm
						{
							OFFSET 0.000000 -27.196400 0.000000
							CHANNELS 3 Zrotation Xrotation Yrotation
							JOINT LeftHand
							{
								OFFSET 0.000000 -24.849000 0.000000
								CHANNELS 3 Zrotation Xrotation Yrotation
								JOINT LeftFinger0
								{
									OFFSET 0.000000 -7.367300 0.000000
									CHANNELS 3 Zrotation Xrotation Yrotation
									End Site
									{
									    OFFSET 0.000000 -5.000000 0.000000
									}
								}
							}
						}
					}
				}
				JOINT RightShoulder
				{
					OFFSET -2.000000 14.330100 0.000000
					CHANNELS 3 Zrotation Xrotation Yrotation
					JOINT RightArm
					{
						OFFSET -14.369100 0.000000 0.000000
						CHANNELS 3 Zrotation Xrotation Yrotation
						JOINT RightForeArm
						{
							OFFSET 0.000000 -27.196400 0.000000
							CHANNELS 3 Zrotation Xrotation Yrotation
							JOINT RightHand
							{
								OFFSET 0.000000 -24.849000 0.000000
								CHANNELS 3 Zrotation Xrotation Yrotation
								JOINT RightFinger0
								{
									OFFSET 0.000000 -7.367300 0.000000
									CHANNELS 3 Zrotation Xrotation Yrotation
									End Site
									{
									    OFFSET 0.000000 -5.000000 0.000000
									}
								}
							}
						}
					}
				}
				JOINT Neck
				{
					OFFSET 0.000000 14.330100 0.000000
					CHANNELS 3 Zrotation Xrotation Yrotation
					JOINT Head
					{
						OFFSET 0.000000 8.944300 0.000000
						CHANNELS 3 Zrotation Xrotation Yrotation
						JOINT HeadTip
						{
							OFFSET 0.000000 10.000000 0.000000
							CHANNELS 3 Zrotation Xrotation Yrotation
							End Site
							{
							    OFFSET 0.000000 5.000000 0.000000
							}
						}
					}
				}
			}
		}
	}
}
MOTION
Frames:	11
Frame Time:	0.033332
-183.690600 7.598100 -67.449000 -0.861636 -38.490485 -4.372695 -50.503486 -60.282093 -90.232710 -0.000000 55.362072 0.000000 -3.080615 -18.376208 -30.820370 -0.000000 8.549899 -0.000000 -0.000000 -0.000000 0.000000 41.890636 -59.709315 67.391316 0.000000 36.269757 0.000000 -3.203836 -23.082604 -0.584516 -0.000000 7.561649 -0.000000 -0.000000 0.000000 -0.000000 0.103660 44.011397 -0.761455 0.000000 11.654345 0.000000 -0.000000 -0.000000 -0.000000 -10.349420 -0.000000 -1.325817 37.454963 -30.686716 5.278162 -0.000000 -71.460111 -0.000000 11.123288 -5.347512 -50.163492 -0.000000 -0.000000 -0.000000 1.382936 0.000000 3.956177 -33.471974 -25.695157 -5.681229 -0.000486 -72.640293 -0.000358 -15.387823 3.388552 33.354959 -0.000000 0.000000 0.000000 -0.000000 -0.000000 -0.000000 -20.330791 5.915421 23.275920 0.000000 0.000000 -0.000000 
-183.691100 7.594000 -67.449300 -0.870510 -38.514771 -4.386257 -50.469178 -60.279877 -90.192962 -0.000000 55.364220 -0.000000 -3.073702 -18.336300 -30.871815 -0.000000 8.502434 0.000000 -0.000000 -0.000000 -0.000000 41.867319 -59.687307 67.351358 0.000000 36.251500 0.000000 -3.183756 -23.044721 -0.592812 -0.000000 7.445802 0.000000 -0.000000 0.000000 0.000000 0.075284 43.968222 -0.730202 -0.000000 11.660793 -0.000000 -0.000000 0.000000 -0.000000 -10.320867 0.000000 -1.332106 37.420736 -30.730777 5.237614 -0.000000 -71.352255 0.000000 11.157849 -5.340536 -50.136224 -0.000000 -0.000000 -0.000000 1.387278 0.000000 3.953785 -33.454795 -25.727500 -5.663190 -0.000483 -72.522581 -0.000354 -15.384196 3.357015 33.305253 -0.000000 0.000000 0.000000 -0.000000 0.000000 -0.000000 -20.059671 5.847001 23.393845 -0.000000 0.000000 -0.000000 
-183.691600 7.589300 -67.450200 -0.878960 -38.553819 -4.389910 -50.405709 -60.258322 -90.129332 -0.000000 55.355396 0.000000 -3.133810 -18.356704 -30.844650 -0.000000 8.563706 0.000000 -0.000000 0.000000 -0.000000 41.819209 -59.666577 67.280361 0.000000 36.252510 0.000000 -3.193528 -23.043609 -0.547909 -0.000000 7.501849 0.000000 -0.000000 -0.000000 -0.000000 0.073033 43.958973 -0.701253 -0.000000 11.650331 -0.000000 -0.000000 0.000000 -0.000000 -10.306156 0.000000 -1.356684 37.395918 -30.770129 5.180248 -0.000000 -71.239229 -0.000000 11.162026 -5.276536 -50.108443 0.000000 0.000000 -0.000000 1.355272 -0.000000 3.959774 -33.384348 -25.754187 -5.704992 -0.000479 -72.389044 -0.000350 -15.372459 3.306345 33.343849 -0.000000 -0.000000 -0.000000 -0.000000 0.000000 -0.000000 -19.777564 5.838101 23.411439 -0.000000 -0.000000 -0.000000 
-183.689700 7.582800 -67.456700 -0.872337 -38.584397 -4.392861 -50.368757 -60.247484 -90.069305 -0.000000 55.341445 -0.000000 -3.072441 -18.301739 -30.885351 -0.000000 8.463561 -0.000000 -0.000000 -0.000000 -0.000000 41.761455 -59.645076 67.221296 -0.000000 36.233311 0.000000 -3.177350 -23.021119 -0.525930 -0.000000 7.464209 0.000000 -0.000000 -0.000000 -0.000000 0.033423 43.965074 -0.680110 -0.000000 11.634535 -0.000000 0.000000 0.000000 -0.000000 -10.272226 0.000000 -1.352131 37.353066 -30.805527 5.153958 -0.000000 -71.159166 -0.000000 11.160308 -5.367397 -50.145413 -0.000000 -0.000000 -0.000000 1.390453 -0.000000 3.977437 -33.410055 -25.780817 -5.713858 -0.000476 -72.302499 -0.000348 -15.381662 3.296014 33.334197 0.000000 -0.000000 0.000000 0.000000 0.000000 -0.000000 -19.510560 5.821009 23.493675 0.000000 0.000000 0.000000 
-183.689500 7.580400 -67.458100 -0.884629 -38.642770 -4.395682 -50.278218 -60.198080 -90.008494 -0.000000 55.331114 0.000000 -3.172417 -18.332474 -30.836411 -0.000000 8.580214 0.000000 -0.000000 0.000000 -0.000000 41.697376 -59.592030 67.172981 0.000000 36.216283 -0.000000 -3.131546 -23.015093 -0.567784 0.000000 7.456089 0.000000 -0.000000 0.000000 -0.000000 0.043299 44.013453 -0.703149 0.000000 11.629183 -0.000000 0.000000 0.000000 -0.000000 -10.298480 0.000000 -1.343325 37.394714 -30.812175 5.146308 -0.000000 -71.117174 -0.000000 11.186103 -5.376190 -50.113491 0.000000 0.000000 0.000000 1.399963 -0.000000 3.978008 -33.397325 -25.821294 -5.718584 -0.000475 -72.255104 -0.000347 -15.385450 3.292193 33.326280 -0.000000 0.000000 -0.000000 0.000000 0.000000 -0.000000 -19.284081 5.813085 23.662935 -0.000000 0.000000 -0.000000 
-183.690400 7.575800 -67.461400 -0.903747 -38.703931 -4.403605 -50.198416 -60.155608 -89.921468 -0.000000 55.330189 -0.000000 -3.126750 -18.268665 -30.848871 -0.000000 8.461053 0.000000 -0.000000 0.000000 0.000000 41.637246 -59.544412 67.096570 -0.000000 36.209846 0.000000 -3.192903 -22.979546 -0.533884 -0.000000 7.472730 -0.000000 -0.000000 0.000000 -0.000000 0.049688 44.096405 -0.693120 0.000000 11.610244 -0.000000 -0.000000 -0.000000 -0.000000 -10.318929 -0.000000 -1.320098 37.390424 -30.862858 5.175274 -0.000000 -71.073693 0.000000 11.337698 -5.703795 -50.425743 -0.000000 -0.000000 0.000000 1.475565 0.000000 3.979094 -33.479192 -25.812836 -5.764349 -0.000476 -72.292281 -0.000348 -15.392015 3.287684 33.288603 -0.000000 0.000000 -0.000000 -0.000000 -0.000000 -0.000000 -18.936842 5.841517 24.039507 -0.000000 0.000000 0.000000 
-183.687500 7.572000 -67.458800 -0.913054 -38.767498 -4.418784 -50.106383 -60.129776 -89.813708 -0.000000 55.330349 -0.000000 -3.194377 -18.266427 -30.820185 -0.000000 8.727691 0.000000 -0.000000 0.000000 0.000000 41.598678 -59.464477 67.123491 -0.000000 36.204528 0.000000 -3.189867 -22.965415 -0.596098 -0.000000 7.505818 -0.000000 -0.000000 -0.000000 0.000000 0.030772 44.194683 -0.658247 -0.000000 11.561809 -0.000000 -0.000000 0.000000 -0.000000 -10.499907 0.000000 -1.180586 37.484029 -31.010424 5.097873 -0.000000 -71.008075 0.000000 11.345404 -5.708460 -50.264396 0.000000 0.000000 0.000000 1.638114 0.000000 3.957919 -33.680850 -25.783914 -5.767313 -0.000479 -72.374557 -0.000350 -15.392012 3.326242 33.188727 -0.000000 0.000000 -0.000000 -0.000000 0.000000 -0.000000 -18.416823 6.167376 24.556932 0.000000 0.000000 -0.000000 
-183.687900 7.563200 -67.455100 -0.921535 -38.899256 -4.412927 -49.954579 -60.047055 -89.610131 -0.000000 55.338269 -0.000000 -3.153587 -18.307005 -30.855806 -0.000000 8.583565 0.000000 -0.000000 0.000000 -0.000000 41.427216 -59.363704 66.950124 -0.000000 36.180882 -0.000000 -3.231355 -22.917064 -0.582084 -0.000000 7.429426 0.000000 -0.000000 -0.000000 0.000000 -0.019377 44.402193 -0.620428 -0.000000 11.474872 -0.000000 -0.000000 0.000000 -0.000000 -10.768847 0.000000 -0.909970 37.559257 -31.285699 4.963588 -0.000000 -70.975024 -0.000000 11.439050 -5.708688 -50.135388 0.000000 0.000000 0.000000 1.865243 -0.000000 3.874521 -33.853805 -25.877225 -5.820748 -0.000479 -72.386053 -0.000350 -15.319539 3.404232 33.120468 0.000000 -0.000000 0.000000 -0.000000 0.000000 -0.000000 -17.454762 6.630084 25.623958 -0.000000 0.000000 -0.000000 
-183.696400 7.550400 -67.451900 -0.927579 -39.119433 -4.413338 -49.697779 -59.932818 -89.278209 -0.000000 55.349617 -0.000000 -3.263153 -18.302851 -30.807576 -0.000000 8.868049 -0.000000 -0.000000 -0.000000 -0.000000 41.187520 -59.200754 66.681996 0.000000 36.176084 -0.000000 -3.218643 -22.893585 -0.556096 -0.000000 7.475713 -0.000000 -0.000000 0.000000 0.000000 -0.166134 44.675063 -0.470588 0.000000 11.481258 -0.000000 -0.000000 0.000000 -0.000000 -10.968571 0.000000 -0.566948 37.441416 -31.650521 4.839757 -0.000000 -71.047649 -0.000000 11.308098 -5.800907 -50.270586 0.000000 -0.000000 -0.000000 2.107833 -0.000000 3.746315 -33.995369 -25.988340 -5.944218 -0.000481 -72.464251 -0.000353 -15.274846 3.423935 33.120919 0.000000 0.000000 -0.000000 -0.000000 0.000000 -0.000000 -15.941950 7.039112 26.890106 -0.000000 0.000000 -0.000000 
-183.706700 7.529500 -67.455100 -0.949770 -39.312718 -4.439748 -49.435482 -59.865869 -88.911361 0.000000 55.355980 -0.000000 -3.203780 -18.349189 -30.937543 -0.000000 8.701518 0.000000 -0.000000 0.000000 -0.000000 41.028238 -59.067477 66.455805 -0.000000 36.195403 0.000000 -3.207998 -22.911285 -0.546184 0.000000 7.489076 -0.000000 0.000000 -0.000000 -0.000000 -0.335796 44.960494 -0.269759 -0.000000 11.517374 -0.000000 -0.000000 -0.000000 0.000000 -11.073139 -0.000000 -0.259514 37.189125 -31.804835 4.649759 0.000000 -71.463615 -0.000000 11.280627 -5.814259 -50.093169 -0.000000 0.000000 0.000000 2.202657 -0.000000 3.636491 -33.938323 -26.003337 -6.113941 -0.000488 -72.687086 -0.000359 -15.334858 3.374497 33.161548 -0.000000 0.000000 -0.000000 -0.000000 -0.000000 0.000000 -14.044748 6.867281 28.474591 -0.000000 -0.000000 -0.000000 
-183.707200 7.515200 -67.460300 -0.963824 -39.444890 -4.440083 -49.284342 -59.800545 -88.700789 -0.000000 55.354385 -0.000000 -3.201641 -18.310943 -30.990854 -0.000000 8.595463 -0.000000 -0.000000 -0.000000 0.000000 40.871331 -58.985357 66.264855 -0.000000 36.187118 0.000000 -3.197951 -22.946059 -0.573551 -0.000000 7.516561 0.000000 0.000000 0.000000 0.000000 -0.469109 45.206826 -0.113915 0.000000 11.578603 -0.000000 -0.000000 0.000000 -0.000000 -11.116324 -0.000000 -0.072254 36.848447 -31.700050 4.587478 -0.000000 -72.097135 -0.000000 11.556991 -6.313342 -50.339307 0.000000 -0.000000 -0.000000 2.146489 0.000000 3.555521 -33.716531 -25.967062 -6.299021 -0.000496 -72.958341 -0.000367 -15.390092 3.387193 33.257326 -0.000000 -0.000000 0.000000 -0.000000 0.000000 -0.000000 -12.097604 6.194558 30.120335 0.000000 0.000000 -0.000000 
